<?xml version="1.0" encoding="utf-8"?>
<!-- Generator: Adobe Illustrator 27.5.0, SVG Export Plug-In . SVG Version: 6.00 Build 0)  -->
<svg version="1.1" xmlns="http://www.w3.org/2000/svg" xmlns:xlink="http://www.w3.org/1999/xlink" x="0px" y="0px"
	 viewBox="0 0 750 500" style="enable-background:new 0 0 750 500;" xml:space="preserve">
<g id="BACKGROUNDv">
	<g>
		<defs>
			<rect id="SVGID_1_" width="750" height="500"/>
		</defs>
		<clipPath id="SVGID_00000164505871570078952030000009987077451805381259_">
			<use xlink:href="#SVGID_1_"  style="overflow:visible;"/>
		</clipPath>
		<g style="clip-path:url(#SVGID_00000164505871570078952030000009987077451805381259_);">
			<rect style="fill:#8CE4B5;" width="750" height="500"/>
			<g>
				<g>
					<path style="fill:#C0FFDB;" d="M570.924,258.095c0,0,3.538-25.593-7.05-45.419c-10.588-19.826-37.046-23.765-37.046-23.765
						s-2.252,23.331,4.38,37.858C537.84,241.295,570.924,258.095,570.924,258.095z"/>
					<path style="fill:#C0FFDB;" d="M599.117,283.14c0,0,15.866-20.391,16.616-42.855c0.75-22.464-20.189-39.11-20.189-39.11
						s-13.621,19.075-15.146,34.971C578.874,252.043,599.117,283.14,599.117,283.14z"/>
					<path style="fill:#C0FFDB;" d="M654.253,288.876c6.518-21.51-9.42-42.993-9.42-42.993s-18.08,14.918-23.652,29.883
						c-5.572,14.965,5.967,50.23,5.967,50.23S647.736,310.387,654.253,288.876z"/>
					<path style="fill:#C0FFDB;" d="M549.998,262.296c-20.688-8.786-43.756,4.758-43.756,4.758s12.894,19.575,27.176,26.719
						c14.282,7.144,50.58-0.549,50.58-0.549S570.686,271.082,549.998,262.296z"/>
					<path style="fill:#C0FFDB;" d="M609.835,336.176c0,0-15.245-20.859-36.638-27.753c-21.392-6.895-43.152,8.663-43.152,8.663
						s14.597,18.339,29.462,24.174C574.372,347.094,609.835,336.176,609.835,336.176z"/>
					<path style="fill:#C0FFDB;" d="M549.295,356.392c0,0,14.597,18.339,29.462,24.174c14.865,5.835,50.328-5.083,50.328-5.083
						s-15.245-20.859-36.638-27.754C571.055,340.834,549.295,356.392,549.295,356.392z"/>
					<path style="fill:#C0FFDB;" d="M683.923,295.101c0,0-21.437,9.48-30.844,22.384c-9.407,12.904-7.821,49.975-7.821,49.975
						s24.038-9.47,36.123-28.42C693.466,320.091,683.923,295.101,683.923,295.101z"/>
				</g>
				<path style="fill:#C0FFDB;" d="M663.296,417.414c-6.395-14.846-13.221-29.503-20.341-44.02c3.004-4.66,5.678-9.347,8.428-14.057
					c2.757-4.789,5.544-9.557,8.173-14.416l7.931-14.547c2.54-4.907,5.196-9.751,7.573-14.745l-8.641,14.136l-8.539,14.189
					l-8.482,14.215c-2.543,4.223-5.095,8.49-7.753,12.574c-1.198-2.427-2.383-4.86-3.598-7.279
					c-4.526-8.953-9.183-17.846-14.067-26.621c2.418-4.221,4.127-8.702,5.711-13.192c1.593-4.704,2.947-9.468,4.075-14.28
					c1.142-4.808,2.142-9.642,3.036-14.492c0.802-4.868,1.61-9.731,2.111-14.638c-1.088,4.807-2.151,9.608-3.367,14.373
					c-1.127,4.782-2.358,9.538-3.725,14.246c-1.36,4.709-2.744,9.408-4.432,13.984c-1.402,3.921-2.969,7.793-4.889,11.422
					c-4.345-7.712-8.846-15.341-13.636-22.81c-3.443-5.188-6.96-10.32-10.457-15.467c0.485-6.36,0.806-12.706,1.074-19.064
					c0.242-6.438,0.484-12.88,0.398-19.327c-0.036-6.445-0.208-12.894-0.647-19.329c-0.546-6.419-1.127-12.876-2.703-19.133
					c1.004,6.36,1.329,12.78,1.449,19.193c0.19,6.412,0.135,12.832-0.066,19.247c-0.227,6.414-0.378,12.831-0.748,19.241
					c-0.278,5.269-0.635,10.539-1.041,15.795c-6.921-10.141-13.908-20.235-21.023-30.237
					c-11.521-16.167-23.179-32.236-35.154-48.072l33.55,49.19c7.037,10.332,14.104,20.644,21.08,31.012
					c-5.214-0.743-10.458-2.126-15.62-3.585c-6.05-1.755-12.035-3.755-18.046-5.692c-11.979-4.009-23.885-8.277-35.797-12.56
					c11.526,5.247,23.274,9.984,35.158,14.387c5.934,2.229,11.962,4.204,18.034,6.075c5.918,1.74,11.851,3.432,18.155,4.175
					c3.458,5.161,6.898,10.334,10.28,15.542c4.905,7.471,9.489,15.152,13.928,22.925c-0.472,0.037-0.97,0.061-1.412,0.068
					c-1.078,0.003-2.167-0.041-3.263-0.118c-2.19-0.168-4.39-0.442-6.589-0.754c-4.401-0.63-8.773-1.567-13.154-2.462
					c-4.374-0.943-8.727-2.007-13.074-3.111l-13.06-3.311c8.416,3.167,16.978,5.947,25.691,8.262
					c4.357,1.163,8.753,2.195,13.226,2.951c2.235,0.39,4.49,0.697,6.775,0.884c1.144,0.091,2.297,0.148,3.464,0.154
					c0.947-0.043,1.746-0.013,2.775-0.192c4.894,8.656,9.594,17.433,14.268,26.216c1.354,2.542,2.674,5.103,4.005,7.657
					c-2.277,0.715-4.596,1.385-6.909,1.851c-1.325,0.26-2.689,0.473-3.9,0.443c-1.204-0.079-2.62-0.384-3.984-0.622l-16.507-3.254
					l-16.536-3.216c-5.531-0.99-11.041-2.074-16.587-3.004c5.42,1.497,10.878,2.824,16.318,4.231l16.392,3.914
					c5.463,1.326,10.961,2.454,16.477,3.607c1.396,0.257,2.729,0.59,4.324,0.72c1.599,0.055,3.03-0.173,4.46-0.426
					c2.614-0.5,5.13-1.174,7.643-1.966c2.845,5.486,5.663,10.987,8.45,16.505C654.497,399.622,658.886,408.52,663.296,417.414z"/>
			</g>
			<path style="fill:#C0FFDB;" d="M222.448,3.816c0,0-13.528,53.019-7.688,90.082c5.84,37.063,27.46,51.856,27.46,51.856
				s6.962-18.912,5.363-53.111S225.943,3.399,225.943,3.399s22.002,47.719,51.254,64.083c29.252,16.364,52.791,8.592,52.791,8.592
				s-9.279-21.287-26.267-35.894S234.474,0.608,234.474,0.608s51.082,9.15,75.567,3.392s32.901-20.944,32.901-20.944
				s-28.407-9.729-58.993-6.079c-30.587,3.649-51.467,12.877-51.467,12.877s-18.547-9.841-41.101-5.732
				c-22.555,4.109-49.32,11.557-58.232,20.066c0,0,15.949,5.897,29.049,5.752c13.101-0.145,53.738-10.19,53.738-10.19
				s-47.91,14.458-64.733,39.865c-16.823,25.407-22.036,44.11-22.036,44.11s25.335-1.605,45.622-21.752S222.448,3.816,222.448,3.816
				z"/>
			<g>
				<path style="fill:#C0FFDB;" d="M48.887,163.76l1.309-2.176c1.199,0.719,121.691,71.867,278.574,58.804
					c19.33-1.606,95.587-5.599,120.769-0.216l-0.53,2.486c-23.324-4.986-94.343-1.872-120.029,0.266
					C171.248,236.054,50.092,164.487,48.887,163.76z"/>
				<g>
					<path style="fill:#C0FFDB;" d="M352.601,202.218c33.805-20.069,45.174-31.662,45.174-31.662s-34.224,1.005-49.531,10.326
						c-15.307,9.321-74.531,42.128-74.531,42.128S318.796,222.286,352.601,202.218z"/>
					<path style="fill:#C0FFDB;" d="M307.408,244.152c-20.675-11.244-46.056-21.702-46.056-21.702s55.729,49.124,79.214,57.085
						c23.486,7.961,41.544-5.404,41.544-5.404C367.173,279.12,328.084,255.396,307.408,244.152z"/>
					<path style="fill:#C0FFDB;" d="M302.078,198.241c23.354-13.482,51.216-37.691,51.216-37.691s-27.378,7.669-44.968,13.395
						c-17.59,5.726-65.137,47.109-65.137,47.109S278.724,211.722,302.078,198.241z"/>
					<path style="fill:#C0FFDB;" d="M264.468,234.736c-12.493-9.055-43.961-17.137-43.961-17.137s14.021,10.561,25.248,23.492
						c11.226,12.931,25.433,29.659,38.917,39.975c13.483,10.316,36.967,12.785,36.967,12.785s-5.875-4.054-14.758-13.394
						C297.997,271.118,276.961,243.791,264.468,234.736z"/>
					<path style="fill:#C0FFDB;" d="M311.456,150.481c0,0-36.382,16.705-48.209,23.294c-11.827,6.59-59.892,41.884-59.892,41.884
						s29.697,0.669,53.183-14.533C280.023,185.925,311.456,150.481,311.456,150.481z"/>
					<path style="fill:#C0FFDB;" d="M231.918,235.816c-9.008-8.732-38.215-21.944-38.215-21.944
						c10.605,12.121,43.002,63.043,51.6,70.567c8.599,7.524,32.789,9.438,32.789,9.438s-8.144-6.862-18.046-19.479
						C250.143,261.781,240.926,244.548,231.918,235.816z"/>
					<path style="fill:#C0FFDB;" d="M174.153,191.887c13.259-6.656,30.722-11.55,40.221-18.255
						c9.499-6.705,26.208-32.024,26.208-32.024c-12.901,7.458-65.277,26.947-73.588,33.54c-8.31,6.593-13.724,29.702-13.724,29.702
						S160.895,198.544,174.153,191.887z"/>
					<path style="fill:#C0FFDB;" d="M235.033,188.917c22.293-17.497,42.658-40.964,42.658-40.964s-29.347,11.335-49.158,22.469
						c-19.81,11.134-51.002,40.029-51.002,40.029S212.74,206.414,235.033,188.917z"/>
					<path style="fill:#C0FFDB;" d="M162.061,206.683c0,0,15.98,29.118,33.155,51.001c17.174,21.882,45.929,45.479,45.929,45.479
						s-22.588-40.446-37.732-59.736C188.268,224.137,162.061,206.683,162.061,206.683z"/>
					<path style="fill:#C0FFDB;" d="M131.303,197.708c0,0,20.486,43.078,37.25,69.242c16.764,26.164,39.825,32.211,39.825,32.211
						s-12.837-30.768-27.718-53.16C165.779,223.61,132.531,198.105,131.303,197.708z"/>
					<path style="fill:#C0FFDB;" d="M167.171,169.557c25.387-21.637,40.417-40.92,40.417-40.92s-26.415,6.672-43.716,19.712
						c-17.301,13.041-48.977,43.739-48.977,43.739S141.783,191.193,167.171,169.557z"/>
					<path style="fill:#C0FFDB;" d="M97.082,185.279c0,0-3.578,10.758,9.624,37.187c13.202,26.429,58.408,65.496,58.408,65.496
						s-3.182-13.662-17.659-43.088C132.979,215.447,97.082,185.279,97.082,185.279z"/>
					<path style="fill:#C0FFDB;" d="M180.806,119.567c0,0-20.157,8.401-47.068,23.471c-26.91,15.07-47.856,37.561-47.856,37.561
						s31.571,2.028,49.786-13.884C153.883,150.803,180.806,119.567,180.806,119.567z"/>
					<path style="fill:#C0FFDB;" d="M335.166,221.182c0,0,8.878,16.974,32.559,27.071c23.681,10.097,60.428,18.827,60.428,18.827
						s-19.463-20.68-36.35-28.298C374.915,231.163,335.166,221.182,335.166,221.182z"/>
					<path style="fill:#C0FFDB;" d="M432.387,190.634c0,0-12.048-1.452-29.506,2.555c-17.459,4.007-47.084,26.807-47.084,26.807
						s28.6-8.664,43.632-13.19C414.46,202.28,432.387,190.634,432.387,190.634z"/>
					<path style="fill:#C0FFDB;" d="M450.439,213.634c-24.487-3.404-56.159,5.15-56.159,5.15s24.581,2.538,49.006,9.756
						c24.425,7.219,59.743,8.861,59.743,8.861S474.926,217.038,450.439,213.634z"/>
				</g>
			</g>
			<path style="fill:#EDDF2E;" d="M650.622,420.491c0,0-16.076-29.774-37.311-38.371c-21.234-8.596-28.983-5.718-41.325-24.434
				c-12.342-18.715-8.38-28.868-29.795-34.481c-21.415-5.613-22.9-1.9-37.064-21.57c-14.165-19.67-24.444-30.02-37.196-18.951
				c-12.753,11.069,3.598,23.138,12.753,43.93c9.155,20.792-5.308,28.315,15.118,54.098c20.426,25.783,29.847,17.853,40.477,29.946
				c10.629,12.094,3.158,24.941,28.198,41.958C589.516,469.637,657.33,494.441,650.622,420.491z"/>
			<path style="fill:#EEF900;" d="M645.753,481.032c0,0-10.987-24.956-35.069-44.109c-24.082-19.153-20.982-11.44-34.318-28.104
				c-13.336-16.664-26.27-31.637-40.953-46.656c-14.683-15.02-36.363-46.264-41.053-51.996
				c-4.691-5.733,16.264,33.813,32.122,51.668c15.858,17.854,32.649,31.647,42.546,44.906c9.897,13.259,25.172,24.632,32.694,30.726
				c7.522,6.094,40.575,43.328,40.575,43.328L645.753,481.032z"/>
			<path style="fill:#FFFF71;" d="M724.192,197.06c0,0-65.757,3.69-106.179,23.828c-40.423,20.137-49.565,50.313-49.565,50.313
				s24.229,1.135,62.903-13.096c38.674-14.231,94.587-57.184,94.587-57.184s-46.795,42.55-54.974,82.056
				c-8.179,39.505,9.273,63.705,9.273,63.705s21.069-18.366,31.677-43.159c10.608-24.793,20.318-93.823,20.318-93.823
				s8.013,61.946,23.497,87.962c15.484,26.016,35.964,30.172,35.964,30.172s0.87-36.13-14.406-69.914
				c-15.275-33.783-33.435-54.404-33.435-54.404s4.573-24.854-8.319-49.252c-12.892-24.398-31.142-52.419-44.138-59.563
				c0,0-0.987,20.443,3.927,35.427c4.915,14.984,31.173,57.984,31.173,57.984s-33.96-49.749-69.219-59.848
				c-35.258-10.099-58.615-9.304-58.615-9.304s11.025,28.497,41.502,44.479C670.642,179.419,724.192,197.06,724.192,197.06z"/>
			<g>
				<path style="fill:#EDDF2E;" d="M114.927,72.315c0,0-12.341-21.202,0.438-42.024c12.779-20.823,48.032,1.914,85.001,38.505
					c36.969,36.591,66.485,48.193,66.485,48.193s-56.282,32.52-114.805,27.448c-46.254-4.009-77.859-34.86-68.003-55.964
					C88.274,79.415,103.991,73.733,114.927,72.315z"/>
				<path style="fill:#FFFF71;" d="M236.054,116.505c0,0-75.079-17.266-121.127-44.19C68.879,45.391,55.266,46.981,55.266,46.981
					s32.95,12.878,47.958,22.851S161.041,105.351,236.054,116.505z"/>
			</g>
			<path style="fill:#EDDF2E;" d="M263.961,476.925c0,0,36.595-80.177,31.122-178.92c0,0-46.508,109.147-55.081,141.459
				c-9.657,36.397-8.762,48.401-8.762,48.401L263.961,476.925z"/>
			<path style="fill:#EDDF2E;" d="M225.609,471.025c0,0-8.975-89.013-35.832-176.326c0,0-6.766,126.642,0.484,173.969
				c7.25,47.327,7.553,56.004,7.553,56.004L225.609,471.025z"/>
			<path style="fill:#FFFF71;" d="M243.743,520.598c0,0,46.194-40.589,78.619-99.043c32.425-58.454,35.681-176.165,57.316-218.706
				c0,0-53.199,60.05-70.535,110.784c-17.336,50.734-21.791,91.811-50.146,134.46C230.642,490.741,205,522.853,205,522.853
				L243.743,520.598z"/>
			<path style="fill:#FFFF71;" d="M271.353,514.576c0,0,40.445-20.479,85.413-58.518c44.968-38.04,116.223-138.9,116.223-138.9
				s-91.742,50.47-121.184,77.433c-29.442,26.964-104.136,111.32-104.136,111.32L271.353,514.576z"/>
			<path style="fill:#FFFF71;" d="M219.934,531.769c0,0,26.846-53.379,38.558-103.837c11.712-50.458-2.678-199.181-2.678-199.181
				s-14.777,56.833-28.276,133.031c-13.499,76.199-30.837,159.566-30.837,159.566L219.934,531.769z"/>
			<path style="fill:#FFFF71;" d="M190.54,530.898l13.334-11.413c0,0-11.004-121.502-48.317-198.899
				c-37.313-77.397-37.313-77.397-37.313-77.397s19.731,135.168,37.857,200.257C174.227,508.535,190.54,530.898,190.54,530.898z"/>
			<g>
				<path style="fill:#C4FA79;" d="M67.764,294.617c-4.355-7.818-7-39.303,3.529-42.34s3.918,45.18,13.637,50.243
					s52.048-8.21,60.937-17.296c8.89-9.086,6.96-22.534,1.774-22.717c-5.186-0.183-23.279-12.106-14.143-19.172
					c12.848-9.937,17.067,19.365,34.994,14.674c17.927-4.691,56.153-43.762,56.153-43.762c3.685-12.4-51.684-40.785-59.788-42.045
					c-8.104-1.26-7.092,9.066-11.532,14.059s-11.393,6.192-12.391-2.786c-0.997-8.978,9.083-12.01,12.58-21.037
					c3.497-9.028-11.466-20.999-20.528-27.642c-9.062-6.643-17.867-10.367-25.804,3.653c-7.937,14.02-10.334,35.919-15.691,36.903
					c-5.357,0.983-15.078-2.998,3.438-27.105c7.379-9.607,12.086-25.077,3.913-32.629s-35.621-10.397-46.995-2.408
					c-11.374,7.99-8.919,32.315-12.14,46.059c-3.22,13.744-9.194-0.186-8.895-17.288c0.206-11.768,15.691-24.217,11.35-30.687
					c-4.341-6.47-13.654-0.198-26.997,0.146C-6.54,112-32.143,139.073-38.253,155.77c-3.401,9.293,3.413,22.634,10.124,32.638
					c5.034,7.503,3.27,17.686-4.062,22.967c-9.013,6.492-19.538,15.928-23.366,26.61c-7.197,20.08,14.852,42.986,31.549,49.096
					c16.697,6.11,20.702,2.471,19.502-4.483c-1.2-6.953,2.427-39.147,10.345-37.266c13.47,3.201-3.91,29.78-3.569,40.338
					c0.34,10.559,11.481,22.348,39.151,24.966C69.092,313.255,72.12,302.435,67.764,294.617z"/>
				<path style="fill:#B1D146;" d="M47.923,311.015c-3.36-15.814-5.486-33.456-4.061-43.74c2.319-17.111,0.276-43.771-0.519-52.594
					c18.997,2.896,36.805,4.724,53.235,5.759l0.008,0.055c0.044,0.324,4.42,32.671,3.66,51.818
					c-0.266,6.738,1.294,17.762,4.05,29.745c3.919-0.803,8.077-1.875,12.212-3.123c-2.357-10.009-3.821-19.494-3.559-26.12
					c0.689-17.432-2.452-43.792-3.464-51.71c18.298,0.74,34.667,0.52,48.831-0.204l20.639,32.18
					c3.326-2.039,6.862-4.522,10.448-7.257l-16.598-25.882c29.444-2.411,46.176-6.663,46.584-6.77l-0.649-2.456
					c-0.395,0.104-16.181,4.12-44.077,6.535l23.034-29.092c-3.743-2.25-7.546-4.392-11.197-6.338l-28.971,36.59
					c-13.885,0.691-29.886,0.892-47.742,0.174c2.781-9.758,12.333-42.943,18.618-60.388c2.362-6.558,4.393-14.451,6.083-22.288
					c-0.513-0.383-1.019-0.759-1.502-1.113c-3.421-2.508-6.805-4.596-10.12-5.474c-1.736,8.625-3.892,17.539-6.423,24.568
					c-7.536,20.927-19.187,62.272-19.679,64.024l-0.001,0.003c-16.338-1.03-34.051-2.849-52.949-5.73
					c4.308-9.502,18.494-40.733,26.433-57.515c6.265-13.244,11.647-32.483,14.772-44.9c-4.032-0.841-8.43-1.313-12.79-1.331
					c-3.056,11.93-7.977,29.176-13.474,40.793c-9.438,19.951-27.621,60.139-27.802,60.541l-0.131,0.291
					c-11.048-1.922-22.463-4.206-34.226-6.915c4.57-8.476,16.299-31.157,22.316-51.41c3.135-10.552,5.831-27.244,7.797-41.841
					c-3.416,0.713-7.27,1.431-11.543,1.541c-0.504,0.013-1.013,0.055-1.521,0.096c-1.847,13.257-4.241,27.571-6.919,36.584
					c-6.638,22.34-21.308,49.025-22.933,51.945c-2.989-0.751-6.038-1.585-9.066-2.389c0.006,0.866-0.065,1.727-0.19,2.581
					c2.789,0.739,5.601,1.511,8.357,2.205l-0.03,0.254c-0.042,0.34-4.124,34.308-9.669,52.667
					c-1.422,4.712-2.478,11.874-3.077,20.18c-0.197,2.741-0.342,5.611-0.436,8.553c2.141,1.215,4.265,2.218,6.309,2.966
					c2.316,0.847,4.363,1.489,6.211,1.979c0.058-11.706,1.007-22.874,3.165-30.004c5.303-17.567,9.153-47.064,9.966-53.586
					c12.047,2.787,23.732,5.128,35.038,7.093l0.05,0.482c0.033,0.336,3.413,33.723,0.845,52.511
					c-1.25,9.208,0.169,26.893,3.47,44.193c2.125,0.351,4.323,0.663,6.685,0.887C43.767,310.858,45.922,310.977,47.923,311.015z"/>
			</g>
			<g>
				<path style="fill:#B1D146;" d="M394.532,22.51c0,0,27.799-8.032,47.953,12.568c20.153,20.599-15.982,54.402-68.459,86.19
					c-52.477,31.789-74.225,62.226-74.225,62.226s-21.045-73.728,1.561-139.225C319.23-7.498,363.6-34.798,384.914-17.462
					C394.062-10.021,396.049,9.591,394.532,22.51z"/>
				<path style="fill:#B1D146;" d="M309.197,148.399c0,0,41.311-80.937,85.335-125.889s46.113-60.982,46.113-60.982
					s-24.194,34-39.913,48.306C385.014,24.14,343.497,65.782,309.197,148.399z"/>
			</g>
			<g>
				<path style="fill:#EEF900;" d="M689.365-65.489l1.288,2.189c-1.204,0.711-121.219,72.661-184.587,216.77
					c-7.811,17.755-40.683,86.678-57.429,106.241l-1.932-1.651c15.51-18.12,46.656-82.02,57.032-105.615
					C567.451,7.557,688.151-64.777,689.365-65.489z"/>
				<g>
					<path style="fill:#EEF900;" d="M510.665,183.082c1.509,39.284,6.274,54.807,6.274,54.807s15.444-30.557,14.556-48.457
						c-0.889-17.9-1.466-85.6-1.466-85.6S509.156,143.798,510.665,183.082z"/>
					<path style="fill:#EEF900;" d="M495.373,123.358c19.746-12.806,41.046-30.123,41.046-30.123s-69.76,25.54-87.961,42.382
						c-18.202,16.842-15.071,39.09-15.071,39.09C436.127,159.199,475.627,136.164,495.373,123.358z"/>
					<path style="fill:#EEF900;" d="M538.265,140.578c0.706,26.957,8.689,62.993,8.689,62.993s6.322-27.72,9.682-45.911
						c3.36-18.191-10.325-79.721-10.325-79.721S537.559,113.621,538.265,140.578z"/>
					<path style="fill:#EEF900;" d="M524.134,90.112c13.918-6.66,36.034-30.459,36.034-30.459s-15.971,7.284-32.692,10.981
						c-16.721,3.697-38.2,8.202-53.7,15.13c-15.499,6.928-28.872,26.389-28.872,26.389s6.366-3.229,18.813-6.58
						C476.164,102.222,510.216,96.771,524.134,90.112z"/>
					<path style="fill:#EEF900;" d="M575.764,171.606c0,0,2.677-39.944,2.529-53.482c-0.149-13.539-8.235-72.619-8.235-72.619
						s-14.756,25.78-12.601,53.673C559.611,127.07,575.764,171.606,575.764,171.606z"/>
					<path style="fill:#EEF900;" d="M538.714,60.991c11.972-3.75,37.518-23.116,37.518-23.116
						c-15.712,3.538-75.922,7.714-86.637,11.681S465.658,73.87,465.658,73.87s9.916-3.883,25.729-6.567
						C507.2,64.619,526.743,64.742,538.714,60.991z"/>
					<path style="fill:#EEF900;" d="M604.881,31.182c-0.476,14.828-4.507,32.51-3.146,44.058
						c1.361,11.547,15.641,38.312,15.641,38.312c-0.4-14.896,7.461-70.225,5.632-80.674c-1.829-10.449-19.555-26.232-19.555-26.232
						S605.357,16.354,604.881,31.182z"/>
					<path style="fill:#EEF900;" d="M578.446,86.104c4.741,27.94,15.649,57.034,15.649,57.034s4.039-31.2,3.706-53.922
						c-0.333-22.722-10.847-63.921-10.847-63.921S573.705,58.164,578.446,86.104z"/>
					<path style="fill:#EEF900;" d="M597.647,13.496c0,0-33.215,0.152-60.64,4.806c-27.425,4.654-61.881,18.667-61.881,18.667
						s46.323-0.554,70.501-4.661C569.804,28.201,597.647,13.496,597.647,13.496z"/>
					<path style="fill:#EEF900;" d="M620.209-9.254c0,0-47.633-2.548-78.625-0.298c-30.992,2.251-47.309,19.632-47.309,19.632
						s33.166,3.398,59.943,1.002C580.996,8.688,619.274-8.364,620.209-9.254z"/>
					<path style="fill:#EEF900;" d="M627.838,35.699c6.904,32.634,16.68,55.043,16.68,55.043s6.739-26.398,3.533-47.824
						c-3.207-21.427-15.073-63.911-15.073-63.911S620.934,3.065,627.838,35.699z"/>
					<path style="fill:#EEF900;" d="M647.459-33.399c0,0-7.748-8.277-37.274-9.283c-29.525-1.007-85.428,20.084-85.428,20.084
						s13.525,3.722,46.293,5.038C603.819-16.244,647.459-33.399,647.459-33.399z"/>
					<path style="fill:#EEF900;" d="M665.266,71.533c0,0,2.234-21.723,1.828-52.563c-0.406-30.84-10.178-59.979-10.178-59.979
						S640.071-14.23,645.365,9.369C650.659,32.969,665.266,71.533,665.266,71.533z"/>
					<path style="fill:#EEF900;" d="M502.316,158.712c0,0-19.153-0.296-39.325,15.699c-20.172,15.994-45.376,44.124-45.376,44.124
						s27.46-7.239,42.212-18.445C474.58,188.883,502.316,158.712,502.316,158.712z"/>
					<path style="fill:#EEF900;" d="M482.78,258.729c0,0,7.024-9.895,11.832-27.15c4.808-17.255-1.096-54.169-1.096-54.169
						s-6.031,29.269-9.225,44.639C481.097,237.418,482.78,258.729,482.78,258.729z"/>
					<path style="fill:#EEF900;" d="M453.954,263.621c14.675-19.896,22.267-51.813,22.267-51.813s-13.958,20.392-31.955,38.414
						c-17.997,18.022-36.29,48.278-36.29,48.278S439.28,283.517,453.954,263.621z"/>
				</g>
			</g>
			<g>
				<path style="fill:#248578;" d="M625.011,487.667c0,0,9.978,16.271,0.409,32.696c-9.569,16.425-37.395-0.632-66.804-28.435
					c-29.408-27.802-52.574-36.3-52.574-36.3s43.198-26.299,88.81-23.398c36.05,2.293,61.183,25.726,53.893,42.317
					C645.616,481.669,633.492,486.369,625.011,487.667z"/>
				<path style="fill:#00987F;" d="M530.006,455.455c0,0,58.707,12.091,95.005,32.212c36.298,20.121,46.858,18.641,46.858,18.641
					s-25.86-9.429-37.711-16.919C622.307,481.9,588.553,462.794,530.006,455.455z"/>
			</g>
			<path style="fill:#09BF76;" d="M430.851,25.879c0,0-43.119,63.074-60.734,105.519c0,0,67.983-42.658,92.659-79.507
				c24.676-36.849,32.422-48.613,32.422-48.613L430.851,25.879z"/>
			<path style="fill:#09BF76;" d="M517.937-15.983c0,0-41.112,62.274-48.794,144.683c0,0,53.153-85.15,64.475-110.946
				c12.753-29.056,13.491-39.101,13.491-39.101L517.937-15.983z"/>
			<path style="fill:#09BF76;" d="M549.791-6.76c0,0-3.49,74.745,8.426,150.103c0,0,21.567-104.134,21.318-144.155
				s0.577-47.243,0.577-47.243L549.791-6.76z"/>
			<g>
				<g>
					<path style="fill:#2E9497;" d="M289.424,44.724c0,0-3.251,25.631,7.559,45.337s37.31,23.348,37.31,23.348
						s1.99-23.355-4.804-37.806C322.695,61.152,289.424,44.724,289.424,44.724z"/>
					<path style="fill:#2E9497;" d="M260.952,19.997c0,0-15.636,20.568-16.134,43.038c-0.498,22.471,20.626,38.881,20.626,38.881
						s13.406-19.227,14.753-35.139C281.543,50.865,260.952,19.997,260.952,19.997z"/>
					<path style="fill:#2E9497;" d="M205.755,14.879c-6.277,21.582,9.901,42.885,9.901,42.885s17.912-15.119,23.316-30.146
						c5.404-15.027-6.53-50.16-6.53-50.16S212.031-6.703,205.755,14.879z"/>
					<path style="fill:#2E9497;" d="M310.302,40.289c20.785,8.553,43.7-5.248,43.7-5.248s-13.112-19.429-27.474-26.412
						c-14.361-6.984-50.571,1.116-50.571,1.116S289.517,31.736,310.302,40.289z"/>
					<path style="fill:#2E9497;" d="M249.641-32.916c0,0,15.478,20.687,36.947,27.341c21.468,6.655,43.052-9.146,43.052-9.146
						s-14.802-18.174-29.732-23.842C284.978-44.23,249.641-32.916,249.641-32.916z"/>
					<path style="fill:#2E9497;" d="M309.949-53.809c0,0-14.802-18.174-29.732-23.842c-14.93-5.667-50.267,5.647-50.267,5.647
						s15.478,20.687,36.947,27.341C288.365-38.008,309.949-53.809,309.949-53.809z"/>
					<path style="fill:#2E9497;" d="M176.018,8.988c0,0,21.329-9.72,30.591-22.729c9.261-13.009,7.26-50.06,7.26-50.06
						s-23.931,9.738-35.802,28.823C166.195-15.893,176.018,8.988,176.018,8.988z"/>
				</g>
				<path style="fill:#317873;" d="M195.272-113.549c6.561,14.773,13.551,29.352,20.833,43.789c-2.952,4.694-5.572,9.41-8.27,14.15
					c-2.703,4.819-5.437,9.618-8.01,14.507l-7.768,14.635c-2.485,4.935-5.086,9.809-7.407,14.829l8.482-14.232l8.38-14.284
					l8.322-14.309c2.496-4.251,4.999-8.547,7.611-12.66c1.225,2.413,2.438,4.833,3.679,7.238
					c4.626,8.902,9.382,17.743,14.364,26.462c-2.37,4.247-4.029,8.748-5.563,13.255c-1.54,4.722-2.841,9.501-3.914,14.325
					c-1.088,4.821-2.034,9.665-2.873,14.525c-0.748,4.876-1.501,9.749-1.947,14.66c1.034-4.819,2.043-9.632,3.206-14.41
					c1.073-4.795,2.251-9.564,3.565-14.287c1.307-4.724,2.639-9.439,4.274-14.033c1.358-3.936,2.881-7.826,4.761-11.476
					c4.431,7.663,9.018,15.241,13.891,22.656c3.501,5.149,7.076,10.241,10.63,15.349c-0.413,6.365-0.663,12.714-0.86,19.075
					c-0.17,6.44-0.34,12.885-0.182,19.331c0.109,6.444,0.353,12.89,0.864,19.321c0.618,6.412,1.271,12.863,2.918,19.102
					c-1.075-6.348-1.473-12.764-1.664-19.176c-0.262-6.409-0.279-12.83-0.15-19.247c0.155-6.416,0.234-12.835,0.532-19.248
					c0.219-5.272,0.517-10.545,0.863-15.806c7.035,10.063,14.134,20.077,21.361,29.999c11.702,16.037,23.539,31.973,35.691,47.674
					L286.79,39.354c-7.152-10.252-14.335-20.484-21.426-30.774c5.222,0.685,10.481,2.008,15.659,3.41
					c6.069,1.687,12.076,3.62,18.109,5.489c12.024,3.874,23.976,8.009,35.936,12.158c-11.584-5.117-23.384-9.723-35.317-13.991
					c-5.959-2.162-12.009-4.069-18.101-5.872c-5.937-1.674-11.888-3.299-18.201-3.971c-3.516-5.122-7.013-10.256-10.453-15.426
					c-4.988-7.415-9.658-15.045-14.185-22.768c0.471-0.042,0.969-0.072,1.411-0.084c1.078-0.015,2.167,0.016,3.264,0.082
					c2.192,0.143,4.394,0.393,6.597,0.681c4.407,0.58,8.79,1.469,13.181,2.314c4.384,0.894,8.749,1.908,13.108,2.964l13.096,3.165
					c-8.451-3.073-17.044-5.756-25.782-7.973c-4.369-1.114-8.777-2.097-13.259-2.802c-2.239-0.365-4.498-0.646-6.785-0.808
					c-1.145-0.078-2.298-0.122-3.466-0.115c-0.946,0.054-1.746,0.032-2.773,0.223c-4.99-8.601-9.789-17.324-14.561-26.054
					c-1.383-2.527-2.731-5.073-4.091-7.612c2.269-0.741,4.581-1.437,6.888-1.928c1.322-0.275,2.683-0.503,3.895-0.487
					c1.205,0.066,2.624,0.354,3.991,0.577l16.543,3.069l16.571,3.031c5.542,0.928,11.064,1.95,16.619,2.818
					c-5.436-1.437-10.909-2.702-16.365-4.048l-16.435-3.729c-5.477-1.264-10.988-2.331-16.517-3.422
					c-1.399-0.242-2.736-0.559-4.331-0.672c-1.599-0.037-3.027,0.207-4.455,0.476c-2.609,0.529-5.116,1.232-7.62,2.052
					c-2.906-5.454-5.786-10.923-8.634-16.409C204.27-95.857,199.781-104.705,195.272-113.549z"/>
			</g>
			<path style="fill:#90D351;" d="M-39.706-0.005c0,0,25.909-10.122,42.255-1.986c16.346,8.136,20.156,22.477,29.932,24.809
				C42.256,25.15,71.46,34.39,73.449,60.694c1.989,26.304,29.41,26.131,36.386,40.193c6.976,14.063-3.143,29.625-18.877,28.454
				c-15.735-1.171-31.654-26.253-43.85-27.097c-12.197-0.844-41.344,8.732-55.824-7.224c-14.48-15.956-2.944-15.367-27.51-26.294
				C-60.793,57.8-66.125,51.569-66.081,37.528C-66.037,23.487-39.706-0.005-39.706-0.005z"/>
			<path style="fill:#02B15E;" d="M-16.694,14.257c0,0,51.348,45.05,51.76,63.345s4.052,24.032,10.334,33.849
				c6.282,9.817,12.442,21.05,9.799,35.086c-2.643,14.037-7.37,15.91-3.574,28.079c3.796,12.169,16.271,22.951,14.643,33.509
				c-1.628,10.558-20.364,19.349-39.969,5.239c-19.605-14.11-13.055-32.087-27.186-41.871
				c-14.131-9.784-30.648-11.785-31.579-33.978c-0.93-22.192,0.051-33.52-11.666-41.525c-11.717-8.005-21.366-34.947-19.364-51.465
				C-61.495,28.009-38.064,5.186-16.694,14.257z"/>
			<path style="fill:#02B15E;" d="M-23.601,16.803c0,0,27.132,20.219,50.011,19.06c22.879-1.159,28.692-7.036,47.775,4.73
				c19.083,11.766,19.772,22.642,41.556,18.702s21.565-7.933,42.703,3.93c21.138,11.863,34.823,16.914,41.719,1.499
				c6.896-15.414-13.019-19.463-30.087-34.456s-7.127-27.912-36.52-42.679s-34.592-3.603-49.33-10.086
				c-14.738-6.484-13.38-21.283-43.261-26.156C11.085-53.526-60.865-47.423-23.601,16.803z"/>
			<g>
				<path style="fill:#4E7165;" d="M-33.068,513.835l-0.904-2.374c1.306-0.499,131.667-51.356,218.252-182.832
					c10.671-16.198,54.611-78.65,74.394-95.135l1.629,1.952c-18.323,15.269-59.721,73.058-73.898,94.584
					C99.349,462.215-31.752,513.336-33.068,513.835z"/>
				<g>
					<path style="fill:#00987F;" d="M184.7,298.664c5.085-38.983,2.984-55.084,2.984-55.084s-20.339,27.542-22.458,45.339
						c-2.118,17.797-12.876,84.639-12.876,84.639S179.615,337.647,184.7,298.664z"/>
					<path style="fill:#00987F;" d="M189.785,360.105c-21.61,9.322-45.507,22.831-45.507,22.831s73.05-13.509,93.812-27.068
						c20.763-13.559,21.398-36.017,21.398-36.017C254.192,334.681,211.395,350.783,189.785,360.105z"/>
					<path style="fill:#00987F;" d="M150.378,335.952c3.814-26.695,1.972-63.559,1.972-63.559s-10.871,26.271-17.227,43.644
						c-6.356,17.373-3.158,80.325-3.158,80.325S146.565,362.647,150.378,335.952z"/>
					<path style="fill:#00987F;" d="M155.867,388.071c-14.836,4.237-40.622,24.001-40.622,24.001s16.965-4.509,34.068-5.357
						c17.103-0.848,39.034-1.695,55.474-5.932s32.88-21.187,32.88-21.187s-6.817,2.119-19.648,3.34
						C205.187,384.157,170.703,383.834,155.867,388.071z"/>
					<path style="fill:#00987F;" d="M118.598,299.088c0,0-9.322,38.933-11.441,52.305c-2.118,13.373-4.03,72.973-4.03,72.973
						s18.861-22.948,21.403-50.808C127.073,345.698,118.598,299.088,118.598,299.088z"/>
					<path style="fill:#00987F;" d="M136.62,414.342c-12.43,1.695-40.856,16.514-40.856,16.514
						c16.083-0.859,76.142,5.097,87.37,2.978c11.227-2.119,27.668-19.966,27.668-19.966s-10.426,2.17-26.465,2.17
						C168.297,416.037,149.05,412.647,136.62,414.342z"/>
					<path style="fill:#00987F;" d="M66.399,432.661c2.95-14.539,9.882-31.298,10.472-42.91c0.59-11.612-9.011-40.389-9.011-40.389
						c-2.098,14.753-19.105,67.987-19.05,78.595c0.055,10.608,14.891,29.134,14.891,29.134S63.449,447.2,66.399,432.661z"/>
					<path style="fill:#00987F;" d="M101.65,382.936c0-28.34-5.886-58.848-5.886-58.848s-9.202,30.085-12.675,52.542
						c-3.473,22.458,0,64.835,0,64.835S101.65,411.275,101.65,382.936z"/>
					<path style="fill:#00987F;" d="M70.572,451.308c0,0,32.772,5.407,60.589,5.407c27.817,0,64.132-8.051,64.132-8.051
						s-45.763-7.204-70.287-7.199C100.483,441.469,70.572,451.308,70.572,451.308z"/>
					<path style="fill:#00987F;" d="M44.521,469.962c0,0,46.535,10.482,77.467,13.448c30.932,2.966,49.926-11.441,49.926-11.441
						s-32.13-8.898-58.931-11.017C86.183,458.834,45.592,469.242,44.521,469.962z"/>
					<path style="fill:#00987F;" d="M44.521,424.366c-1.346-33.329-7.235-57.058-7.235-57.058s-11.06,24.898-11.484,46.559
						C25.379,435.529,29.97,479.4,29.97,479.4S45.868,457.696,44.521,424.366z"/>
					<path style="fill:#00987F;" d="M13.616,489.208c0,0,6.254,9.456,35.195,15.389c28.941,5.932,87.584-5.509,87.584-5.509
						s-12.712-5.932-44.798-12.712C59.511,479.596,13.616,489.208,13.616,489.208z"/>
					<path style="fill:#00987F;" d="M13.616,382.776c0,0-5.837,21.043-10.597,51.516c-4.76,30.473,0,60.836,0,60.836
						s21.088-23.583,19.817-47.736C21.565,423.241,13.616,382.776,13.616,382.776z"/>
					<path style="fill:#00987F;" d="M188.854,324.088c0,0,18.834,3.496,41.397-8.898c22.563-12.394,52.119-35.911,52.119-35.911
						s-28.284,2.542-44.703,11.123C221.247,298.982,188.854,324.088,188.854,324.088z"/>
					<path style="fill:#00987F;" d="M224.849,228.749c0,0-8.581,8.581-16.208,24.788s-7.982,53.589-7.982,53.589
						s10.842-27.848,16.563-42.466C222.942,250.042,224.849,228.749,224.849,228.749z"/>
					<path style="fill:#00987F;" d="M254.086,228.749c-17.797,17.161-30.622,47.357-30.622,47.357s17.173-17.769,37.931-32.526
						c20.758-14.757,43.856-41.526,43.856-41.526S271.883,211.588,254.086,228.749z"/>
				</g>
			</g>
			<path style="fill:#248578;" d="M540.572-49.872c0,0-44.324,28.399-79.179,73.151c-34.855,44.753-52.324,141.886-76.022,174.678
				c0,0,52.707-43.727,73.776-83.79c21.069-40.063,29.984-73.584,59.407-105.706c29.422-32.121,55.223-55.822,55.223-55.822
				L540.572-49.872z"/>
			<path style="fill:#248578;" d="M516.358-48.005c0,0-36.928,12.39-79.891,38.816C393.503,17.236,320.355,92.725,320.355,92.725
				s84.264-31.434,112.651-50.44c28.387-19.006,102.397-80.436,102.397-80.436L516.358-48.005z"/>
			<path style="fill:#248578;" d="M562.2-56.433c0,0-29.48,41.179-45.735,81.65c-16.255,40.471-22.602,165.287-22.602,165.287
				s19.656-45.405,40.644-106.995c20.988-61.59,46.134-128.684,46.134-128.684L562.2-56.433z"/>
			<path style="fill:#248578;" d="M587.07-52.389l-12.756,7.946c0,0-5.825,101.885,16.217,170.213
				c22.041,68.327,22.041,68.327,22.041,68.327s0.115-114.191-7.159-170.155C598.139-32.021,587.07-52.389,587.07-52.389z"/>
			<path style="fill:#01977F;" d="M403.848,481.777c0,0,23.729-61.437,22.034-106.566c-1.695-45.129-25.424-65.892-25.424-65.892
				s-11.017,21.61-13.983,62.712c-2.966,41.102,13.136,109.746,13.136,109.746s-19.492-60.169-52.119-83.898
				s-61.868-17.797-61.868-17.797s8.055,26.765,26.275,46.645c18.22,19.88,77.119,57.168,77.119,57.168s-59.746-18.22-89.83-14.831
				c-30.085,3.39-42.309,20.339-42.309,20.339s32.563,15.678,69.639,15.678c37.076,0,63.347-8.051,63.347-8.051
				s20.763,14.407,48.305,12.712c27.542-1.695,60.593-6.78,72.458-15.678c0,0-18.22-9.322-33.898-11.017
				c-15.678-1.695-65.678,4.515-65.678,4.515s59.322-10.448,83.051-38.414c23.729-27.966,32.627-49.576,32.627-49.576
				s-30.508-1.695-57.627,19.491C441.983,440.251,403.848,481.777,403.848,481.777z"/>
			<path style="fill:#C4FA79;" d="M-42.04-1.193c0,0,12.89,15.638,37.681,33.124s31.675,26.013,45.969,40.401
				c14.294,14.389,53.81,37.174,53.81,37.174S51.151,85.251,35.027,71.487C18.904,57.722,10.712,43.226-5.519,34.666
				c-16.23-8.56-42.823-36.955-42.823-36.955L-42.04-1.193z"/>
			<path style="fill:#C4FA79;" d="M-46.14,6.657c0.862,1.026,8.829,38.391,19.706,58.942C-15.557,86.15-2.717,94.281,3.334,114.216
				c6.052,19.935,18.043,46.633,25.753,65c7.709,18.367,15.848,32.006,16.561,30.356c0.714-1.65-20.18-46.242-23.926-55.696
				c-3.746-9.454-17.081-55.674-28.094-70.909c-11.013-15.235-17.504-33.173-24.53-47.253C-37.928,21.634-46.14,6.657-46.14,6.657z"
				/>
			<path style="fill:#C4FA79;" d="M-44.713-40.146c0,0,20.486,17.996,50.398,25.208c29.912,7.212,23.849,1.526,42.968,11.012
				c19.119,9.486,37.161,17.609,56.808,25.037c19.647,7.428,52.48,26.617,59.15,29.837c6.67,3.22-29.006-23.802-50.913-33.305
				C91.789,8.142,70.748,2.715,56.183-5.134c-14.565-7.849-33.211-11.721-42.601-14.075C4.191-21.564-41.48-41.388-41.48-41.388
				L-44.713-40.146z"/>
			<g>
				<path style="fill:#02B15E;" d="M764.418,363.17c-2.449,8.608-22.842,32.741-32.435,27.443
					c-9.592-5.298,29.177-34.718,25.884-45.17c-3.293-10.452-42.608-30.998-55.319-30.859
					c-12.711,0.139-20.855,11.012-17.318,14.809c3.537,3.796,7.901,25.021-3.556,23.557c-16.111-2.058,1.625-25.761-14.368-35.121
					c-15.993-9.359-70.651-8.762-70.651-8.762c-11.374,6.163,7.707,65.386,12.546,72.007c4.84,6.621,11.426-1.396,18.096-1.787
					c6.67-0.391,12.435,3.678,6.792,10.732c-5.644,7.053-14.915,2.07-23.771,5.98c-8.856,3.911-6.741,22.956-5.031,34.061
					c1.711,11.105,5.303,19.964,20.829,15.663c15.526-4.301,32.706-18.091,37.189-14.999c4.483,3.093,8.542,12.781-21.597,16.735
					c-12.011,1.576-26.278,9.186-25.839,20.305c0.439,11.119,17.836,32.54,31.528,34.933c13.692,2.393,29.157-16.543,41.153-23.984
					c11.995-7.441,6.37,6.633-5.935,18.514c-8.467,8.176-28.219,6.029-29.725,13.673c-1.505,7.644,9.515,9.795,19.194,18.987
					c15.745,14.953,52.992,13.913,69.119,6.427c8.976-4.167,13.591-18.418,15.92-30.238c1.746-8.865,10.194-14.818,19.112-13.368
					c10.964,1.783,25.078,2.553,35.339-2.293c19.287-9.11,19.893-40.898,12.407-57.025c-7.486-16.127-12.892-16.385-16.96-10.62
					c-4.068,5.765-29.398,25.965-33.666,19.036c-7.262-11.788,23.822-18.293,31.047-26c7.226-7.707,7.684-23.92-10.03-45.338
					C776.658,349.052,766.866,354.562,764.418,363.17z"/>
				<path style="fill:#09BF76;" d="M790.043,365.605c-8.806,13.558-19.778,27.536-28.058,33.801
					c-13.739,10.46-31.146,30.756-36.823,37.556c-11.385-15.481-22.684-29.365-33.57-41.715l0.033-0.044
					c0.198-0.26,19.977-26.227,34.053-39.229c4.953-4.576,11.645-13.475,18.169-23.897c-3.34-2.203-7.037-4.385-10.843-6.427
					c-5.411,8.745-11.082,16.486-15.953,20.986c-12.813,11.839-29.232,32.7-34.115,39.015
					c-12.415-13.462-24.145-24.881-34.672-34.385l8.161-37.349c-3.793-0.91-8.049-1.655-12.519-2.256l-6.565,30.038
					c-22.524-19.115-37.363-27.94-37.727-28.153l-1.278,2.196c0.353,0.206,14.355,8.529,35.788,26.546l-36.859,4.284
					c1.056,4.238,2.231,8.441,3.436,12.399l46.359-5.387c10.307,9.329,21.763,20.502,33.882,33.635
					c-8.867,4.934-39.086,21.644-55.866,29.536c-6.308,2.968-13.325,7.112-20.061,11.459c0.092,0.633,0.184,1.257,0.275,1.849
					c0.646,4.193,1.562,8.061,3.285,11.026c7.326-4.871,15.154-9.65,21.914-12.831c20.126-9.468,57.6-30.465,59.187-31.356
					l0.003-0.001c10.824,12.281,22.063,26.092,33.389,41.492c-9.765,3.673-41.88,15.725-59.36,21.978
					c-13.795,4.934-31.205,14.733-42.195,21.304c2.256,3.446,5.033,6.889,8.103,9.985c10.597-6.275,26.271-14.99,38.372-19.318
					c20.781-7.434,62.056-22.993,62.468-23.15l0.298-0.112c6.453,9.171,12.909,18.858,19.312,29.091
					c-9.225,2.762-33.556,10.506-52.132,20.573c-9.678,5.245-23.387,15.141-35.1,24.073c2.919,1.911,6.152,4.129,9.251,7.073
					c0.366,0.347,0.755,0.677,1.143,1.008c10.68-8.068,22.495-16.497,30.761-20.976c20.491-11.104,49.733-19.599,52.946-20.515
					c1.582,2.645,3.149,5.39,4.721,8.1c0.608-0.617,1.267-1.175,1.959-1.69c-1.45-2.494-2.892-5.029-4.351-7.469l0.201-0.158
					c0.27-0.211,27.176-21.343,44.078-30.405c4.337-2.326,10.149-6.644,16.445-12.094c2.078-1.798,4.209-3.726,6.357-5.74
					c-0.654-2.373-1.447-4.585-2.364-6.559c-1.038-2.236-2.032-4.138-2.992-5.791c-8.318,8.237-16.886,15.462-23.454,18.978
					c-16.172,8.672-39.751,26.807-44.938,30.844c-6.548-10.49-13.155-20.407-19.76-29.791l0.305-0.376
					c0.214-0.261,21.433-26.259,36.534-37.728c7.395-5.628,18.897-19.136,28.796-33.703c-1.255-1.75-2.588-3.526-4.1-5.354
					C792.871,368.655,791.431,367.047,790.043,365.605z"/>
			</g>
			<path style="fill:#01977F;" d="M775.86,6.077c0,0,34.322,9.852,43.22,20.975l-4.767,4.893c0,0,16.525,29.747,20.339,55.806
				c0,0-34.958-6.992-47.034-22.881c0,0,11.441,60.381-6.992,83.898l-16.525-6.038c0,0-10.487,13.648-21.61,20.807l-2.225-25.256
				c0,0-11.441-0.953-17.161-1.589c0,0,3.814-23.199,6.992-47.987c0,0-6.674,6.991-16.208,23.199
				c-9.534,16.208-6.038,20.339-15.572,28.284L686.56,129.7c0,0-24.153,12.394-62.288,14.619c0,0,5.085-40.36,17.479-55.297
				l-10.487-13.347c0,0,23.199-18.114,31.78-24.47c8.581-6.356,7.309-15.788,7.309-15.788s-30.655,4.542-40.641,3.076V26.733
				c0,0-26.177-18.853-40.755-15.941c0,0,12.752-21.906,26.417-26.658c13.665-4.752,13.665-4.752,13.665-4.752l-5.403-10.487
				c0,0,16.208-3.496,33.369-1.271c17.161,2.224,32.098,5.72,32.098,5.72s-27.648-27.966-31.462-39.725c0,0,34.64-5.72,51.801,2.86
				c17.161,8.58,37.182,34.322,37.182,34.322l2.86-7.309C749.483-36.508,776.178-13.944,775.86,6.077z"/>
			<g>
				<path style="fill:#248578;" d="M9.78,317.37c0,0-19.067,0.861-28.813-15.459c-9.746-16.32,18.644-32.422,57.203-44.71
					c38.559-12.288,57.203-28.452,57.203-28.452s2.119,50.53-22.486,89.045c-19.447,30.441-52.114,41.102-63.108,26.695
					C5.061,338.305,6.813,325.421,9.78,317.37z"/>
				<path style="fill:#00987F;" d="M83.932,249.806c0,0-38.983,45.531-74.152,67.564c-35.17,22.034-38.983,31.992-38.983,31.992
					s20.763-18.071,33.051-24.819C16.136,317.794,49.186,297.496,83.932,249.806z"/>
			</g>
			<g>
				<path style="fill:#248578;" d="M743.522,280.661c0,0,9.978,16.271,0.409,32.696c-9.569,16.425-37.395-0.632-66.803-28.434
					c-29.409-27.802-52.574-36.3-52.574-36.3s43.198-26.299,88.81-23.398c36.05,2.293,61.183,25.726,53.893,42.317
					C764.127,274.663,752.003,279.362,743.522,280.661z"/>
				<path style="fill:#00987F;" d="M648.517,248.449c0,0,58.707,12.091,95.005,32.212c36.298,20.121,46.858,18.641,46.858,18.641
					s-25.86-9.429-37.711-16.919C740.818,274.893,707.064,255.787,648.517,248.449z"/>
			</g>
		</g>
	</g>
</g>
<g id="OBJECTS">
</g>
<g id="DESIGNED_BY_FREEPIK">
	<g>
		<g id="XMLID_1_">
			<g id="XMLID_20_">
				<path id="XMLID_28_" style="fill:#112129;" d="M385.104,465.465c-0.433,0.443-0.804,0.932-1.108,1.453l-0.465-0.241
					c-0.067-0.297-0.35-0.502-0.659-0.466c-0.331,0.039-0.567,0.339-0.529,0.67c0.039,0.331,0.339,0.567,0.67,0.528
					c0.066-0.007,0.127-0.025,0.184-0.052l0.451,0.234c-0.251,0.554-0.433,1.139-0.539,1.743l0.747,0.132
					c0.229-1.306,0.85-2.507,1.792-3.473L385.104,465.465z"/>
				<path id="XMLID_27_" style="fill:#112129;" d="M390.591,463.163c-0.171,0-0.341,0.006-0.509,0.017l-0.074-0.626
					c0.188-0.149,0.296-0.389,0.266-0.645c-0.046-0.393-0.402-0.674-0.795-0.628c-0.394,0.046-0.675,0.402-0.628,0.796
					c0.03,0.254,0.189,0.461,0.404,0.563l0.073,0.624c-0.714,0.116-1.402,0.332-2.06,0.645l0.327,0.685
					c0.935-0.447,1.941-0.674,2.995-0.674c0.497,0,0.993,0.053,1.476,0.158l0.16-0.741
					C391.692,463.222,391.142,463.163,390.591,463.163z"/>
				<path id="XMLID_26_" style="fill:#112129;" d="M397.194,465.71c0.331-0.04,0.566-0.341,0.525-0.672
					c-0.04-0.331-0.341-0.566-0.672-0.525c-0.31,0.038-0.535,0.304-0.53,0.608l-0.416,0.363c-0.418-0.43-0.89-0.813-1.407-1.14
					l-0.404,0.642c1.135,0.715,2.021,1.727,2.564,2.925l0.69-0.313c-0.251-0.554-0.567-1.071-0.942-1.545l0.402-0.351
					C397.065,465.715,397.128,465.719,397.194,465.71z"/>
				<path id="XMLID_25_" style="fill:#112129;" d="M390.044,473.371c-0.386,0.023-0.775,0.035-1.157,0.035
					c-0.88,0-1.733-0.061-2.478-0.18c-0.391-0.061-0.846-0.154-1.271-0.292c1.047,1.861,3.069,3.125,5.389,3.125
					c2.855,0,5.263-1.916,5.949-4.503c-0.682,0.449-1.505,0.825-2.458,1.122C392.838,473.047,391.463,473.286,390.044,473.371z"/>
				<path id="XMLID_21_" style="fill:#112129;" d="M390.591,464.68c-3.352,0-6.079,2.666-6.079,5.943
					c0,0.425,0.046,0.849,0.137,1.261c0.674,0.483,2.706,0.891,5.348,0.731c2.88-0.174,5.297-0.958,6.672-2.159
					c-0.005-0.194-0.02-0.39-0.045-0.581C396.244,466.913,393.65,464.68,390.591,464.68z M388.432,471.194
					c-1.02,0-1.85-0.83-1.85-1.85c0-1.021,0.83-1.85,1.85-1.85c1.02,0,1.85,0.83,1.85,1.85
					C390.282,470.364,389.452,471.194,388.432,471.194z M393.169,470.286c-0.75,0-1.36-0.61-1.36-1.36s0.61-1.36,1.36-1.36
					s1.36,0.61,1.36,1.36S393.919,470.286,393.169,470.286z"/>
			</g>
			<path id="XMLID_18_" style="fill:#112129;" d="M406.595,466.547c-0.295-0.116-0.806-0.31-1.383-0.238
				c-0.551,0.069-0.844,0.341-0.844,1.007v0.866h2.229v1.717h-2.229v5.455h-1.932v-5.455h-1.339v-1.717h1.339v-0.889
				c0-1.68,0.896-2.782,2.568-2.782c0.643,0,1.157,0.121,1.59,0.308V466.547z"/>
			<path id="XMLID_16_" style="fill:#112129;" d="M411.297,469.878c-0.177-0.029-0.357-0.046-0.525-0.046
				c-0.896,0-1.51,0.548-1.51,1.613v3.908h-1.933v-7.172h1.873v0.784c0.451-0.673,1.14-0.977,2.02-0.977
				c0.414,0,0.848,0.128,1.095,0.337L411.297,469.878z"/>
			<path id="XMLID_13_" style="fill:#112129;" d="M418.965,471.757c0,0.222-0.016,0.488-0.037,0.651h-5.085
				c0.207,1.036,0.933,1.487,1.843,1.487c0.622,0,1.295-0.252,1.813-0.689l1.133,1.243c-0.814,0.748-1.851,1.089-3.057,1.089
				c-2.198,0-3.724-1.496-3.724-3.753c0-2.258,1.48-3.797,3.627-3.797C417.543,467.989,418.958,469.522,418.965,471.757z
				 M413.851,471.091h3.175c-0.178-0.918-0.732-1.436-1.561-1.436C414.554,469.654,414.021,470.202,413.851,471.091z"/>
			<path id="XMLID_10_" style="fill:#112129;" d="M426.619,471.757c0,0.222-0.016,0.488-0.037,0.651h-5.085
				c0.207,1.036,0.933,1.487,1.843,1.487c0.622,0,1.296-0.252,1.814-0.689l1.133,1.243c-0.814,0.748-1.851,1.089-3.058,1.089
				c-2.198,0-3.723-1.496-3.723-3.753c0-2.258,1.48-3.797,3.627-3.797C425.197,467.989,426.611,469.522,426.619,471.757z
				 M421.504,471.091h3.175c-0.178-0.918-0.733-1.436-1.562-1.436C422.208,469.654,421.674,470.202,421.504,471.091z"/>
			<path id="XMLID_7_" style="fill:#112129;" d="M434.964,471.764c0,2.154-1.495,3.775-3.472,3.775
				c-0.962,0-1.643-0.378-2.109-0.933v3.708h-1.925v-10.133h1.888v0.792c0.467-0.585,1.154-0.984,2.139-0.984
				C433.469,467.989,434.964,469.61,434.964,471.764z M429.287,471.764c0,1.133,0.748,1.977,1.844,1.977
				c1.14,0,1.85-0.881,1.85-1.977c0-1.095-0.71-1.976-1.85-1.976C430.035,469.788,429.287,470.632,429.287,471.764z"/>
			<path id="XMLID_4_" style="fill:#112129;" d="M438.068,465.835c0,0.696-0.541,1.23-1.236,1.23c-0.696,0-1.229-0.533-1.229-1.23
				c0-0.695,0.532-1.243,1.229-1.243C437.527,464.592,438.068,465.14,438.068,465.835z M437.808,475.353h-1.932v-7.172h1.932
				V475.353z"/>
			<path id="XMLID_2_" style="fill:#112129;" d="M441.032,470.735l2.702-2.554h2.368l-3.478,3.375l3.501,3.797h-2.376l-2.717-2.901
				v2.901H439.1v-10.658h1.932V470.735z"/>
		</g>
		<g>
			<path style="fill:#112129;" d="M309.412,475.289v-1.055c-0.527,0.718-1.391,1.23-2.387,1.23c-1.846,0-3.149-1.406-3.149-3.706
				c0-2.256,1.289-3.721,3.149-3.721c0.952,0,1.816,0.469,2.387,1.245v-3.765h1.099v9.771H309.412z M309.412,473.37v-3.208
				c-0.395-0.615-1.245-1.143-2.124-1.143c-1.42,0-2.27,1.172-2.27,2.739c0,1.567,0.85,2.725,2.27,2.725
				C308.167,474.483,309.017,473.985,309.412,473.37z"/>
			<path style="fill:#112129;" d="M311.932,471.744c0-2.051,1.465-3.706,3.486-3.706c2.139,0,3.398,1.67,3.398,3.794v0.278h-5.727
				c0.088,1.333,1.025,2.446,2.549,2.446c0.806,0,1.626-0.322,2.182-0.894l0.527,0.718c-0.703,0.703-1.655,1.084-2.812,1.084
				C313.44,475.465,311.932,473.956,311.932,471.744z M315.403,468.946c-1.509,0-2.256,1.274-2.314,2.358h4.644
				C317.718,470.25,317.015,468.946,315.403,468.946z"/>
			<path style="fill:#112129;" d="M319.607,474.352l0.571-0.791c0.469,0.542,1.362,1.011,2.329,1.011c1.084,0,1.67-0.513,1.67-1.216
				c0-1.714-4.38-0.659-4.38-3.281c0-1.099,0.952-2.036,2.636-2.036c1.202,0,2.051,0.454,2.623,1.025l-0.513,0.762
				c-0.424-0.513-1.201-0.893-2.109-0.893c-0.966,0-1.567,0.483-1.567,1.113c0,1.553,4.379,0.527,4.379,3.281
				c0,1.186-0.952,2.139-2.783,2.139C321.306,475.465,320.325,475.113,319.607,474.352z"/>
			<path style="fill:#112129;" d="M326.477,466.471c0-0.41,0.337-0.747,0.732-0.747c0.41,0,0.747,0.337,0.747,0.747
				c0,0.41-0.337,0.732-0.747,0.732C326.814,467.203,326.477,466.881,326.477,466.471z M326.667,475.289v-7.075h1.099v7.075H326.667
				z"/>
			<path style="fill:#112129;" d="M329.582,477.105l0.556-0.82c0.586,0.703,1.289,0.967,2.3,0.967c1.172,0,2.271-0.571,2.271-2.124
				v-1.011c-0.513,0.718-1.377,1.26-2.373,1.26c-1.846,0-3.149-1.377-3.149-3.662c0-2.271,1.289-3.677,3.149-3.677
				c0.952,0,1.802,0.469,2.373,1.245v-1.069h1.099v6.87c0,2.344-1.641,3.076-3.369,3.076
				C331.237,478.16,330.417,477.925,329.582,477.105z M334.708,473.253v-3.091c-0.381-0.615-1.23-1.143-2.109-1.143
				c-1.421,0-2.27,1.128-2.27,2.695c0,1.553,0.849,2.695,2.27,2.695C333.478,474.41,334.328,473.868,334.708,473.253z"/>
			<path style="fill:#112129;" d="M342.413,475.289v-4.629c0-1.245-0.63-1.641-1.582-1.641c-0.864,0-1.685,0.527-2.094,1.099v5.171
				h-1.099v-7.075h1.099v1.025c0.498-0.586,1.464-1.201,2.519-1.201c1.479,0,2.256,0.747,2.256,2.285v4.966H342.413z"/>
			<path style="fill:#112129;" d="M344.932,471.744c0-2.051,1.465-3.706,3.486-3.706c2.139,0,3.398,1.67,3.398,3.794v0.278h-5.727
				c0.088,1.333,1.025,2.446,2.548,2.446c0.806,0,1.626-0.322,2.183-0.894l0.527,0.718c-0.703,0.703-1.655,1.084-2.813,1.084
				C346.441,475.465,344.932,473.956,344.932,471.744z M348.404,468.946c-1.509,0-2.256,1.274-2.314,2.358h4.643
				C350.718,470.25,350.015,468.946,348.404,468.946z"/>
			<path style="fill:#112129;" d="M358.35,475.289v-1.055c-0.527,0.718-1.392,1.23-2.388,1.23c-1.845,0-3.149-1.406-3.149-3.706
				c0-2.256,1.289-3.721,3.149-3.721c0.952,0,1.817,0.469,2.388,1.245v-3.765h1.098v9.771H358.35z M358.35,473.37v-3.208
				c-0.396-0.615-1.245-1.143-2.124-1.143c-1.421,0-2.271,1.172-2.271,2.739c0,1.567,0.85,2.725,2.271,2.725
				C357.105,474.483,357.954,473.985,358.35,473.37z"/>
			<path style="fill:#112129;" d="M364.692,475.289v-9.771h1.099v3.765c0.571-0.776,1.421-1.245,2.388-1.245
				c1.845,0,3.149,1.465,3.149,3.721c0,2.3-1.304,3.706-3.149,3.706c-0.996,0-1.86-0.513-2.388-1.23v1.055H364.692z M367.9,474.483
				c1.436,0,2.285-1.157,2.285-2.725c0-1.567-0.85-2.739-2.285-2.739c-0.864,0-1.729,0.527-2.109,1.143v3.208
				C366.171,473.985,367.036,474.483,367.9,474.483z"/>
			<path style="fill:#112129;" d="M372.528,477.061c0.161,0.073,0.425,0.117,0.6,0.117c0.483,0,0.806-0.161,1.055-0.747l0.469-1.069
				l-2.959-7.148h1.186l2.358,5.801l2.344-5.801h1.2l-3.544,8.511c-0.425,1.024-1.143,1.421-2.08,1.436
				c-0.234,0-0.601-0.044-0.806-0.103L372.528,477.061z"/>
		</g>
	</g>
</g>
</svg>
